<?xml version="1.0" encoding="UTF-8" standalone="no"?>
<!-- This is a Stata 16.0 generated SVG file (http://www.stata.com) -->

<svg version="1.1" width="3.58in" height="2.60in" viewBox="0 0 2574 1872" xmlns="http://www.w3.org/2000/svg" xmlns:xlink="http://www.w3.org/1999/xlink">
	<desc>Stata Graph - Graph</desc>
	<rect x="0" y="0" width="2574" height="1872" style="fill:#FFFFFF;stroke:none"/>
	<rect x="0.00" y="0.00" width="2573.92" height="1872.00" style="fill:#FFFFFF"/>
	<rect x="1.50" y="1.50" width="2570.92" height="1869.00" style="fill:none;stroke:#FFFFFF;stroke-width:3.00"/>
	<rect x="390.52" y="381.37" width="2117.84" height="1327.58" style="fill:#FFFFFF"/>
	<rect x="392.02" y="382.87" width="2114.84" height="1324.58" style="fill:none;stroke:#FFFFFF;stroke-width:3.00"/>
	<rect x="654.68" y="950.56" width="794.80" height="699.27" style="fill:#A6C2DE"/>
	<rect x="656.18" y="952.06" width="791.80" height="696.27" style="fill:none;stroke:#2166AC;stroke-width:3.00"/>
	<rect x="1449.48" y="1590.30" width="794.72" height="59.53" style="fill:#E0A3AA"/>
	<rect x="1450.98" y="1591.80" width="791.72" height="56.53" style="fill:none;stroke:#B2182B;stroke-width:3.00"/>
	<line x1="1052.04" y1="1454.19" x2="1052.04" y2="446.92" style="stroke:#808080;stroke-width:3.00"/>
	<line x1="1037.72" y1="446.92" x2="1066.36" y2="446.92" stroke-linecap="round" style="stroke:#808080;stroke-width:3.00"/>
	<line x1="1037.72" y1="1454.19" x2="1066.36" y2="1454.19" stroke-linecap="round" style="stroke:#808080;stroke-width:3.00"/>
	<line x1="1846.85" y1="1708.95" x2="1846.85" y2="1471.57" style="stroke:#808080;stroke-width:3.00"/>
	<line x1="1832.53" y1="1471.57" x2="1861.16" y2="1471.57" stroke-linecap="round" style="stroke:#808080;stroke-width:3.00"/>
	<line x1="1832.53" y1="1708.95" x2="1861.16" y2="1708.95" stroke-linecap="round" style="stroke:#808080;stroke-width:3.00"/>
	<line x1="390.52" y1="1708.95" x2="390.52" y2="381.37" style="stroke:#000000;stroke-width:3.00"/>
	<text x="351.51" y="1672.59" style="font-family:'Helvetica';font-size:64.99px;fill:#000000" text-anchor="end">0%</text>
	<text x="351.51" y="1113.21" style="font-family:'Helvetica';font-size:64.99px;fill:#000000" text-anchor="end">20%</text>
	<text x="351.51" y="553.75" style="font-family:'Helvetica';font-size:64.99px;fill:#000000" text-anchor="end">40%</text>
	<text x="155.53" y="1045.16" style="font-family:'Helvetica';font-size:78.02px;fill:#000000" transform="rotate(-90 155.53,1045.16)" text-anchor="middle">Percentage</text>
	<line x1="390.52" y1="1708.95" x2="2508.36" y2="1708.95" style="stroke:#000000;stroke-width:3.00"/>
	<text x="456.00" y="1767.44" style="font-family:'Helvetica';font-size:64.99px;fill:#000000" text-anchor="middle"> </text>
	<text x="2442.89" y="1767.44" style="font-family:'Helvetica';font-size:64.99px;fill:#000000" text-anchor="middle"> </text>
	<rect x="974.82" y="1742.97" width="965.97" height="121.14" style="fill:#FFFFFF"/>
	<rect x="976.32" y="1744.47" width="962.97" height="118.14" style="fill:none;stroke:#FFFFFF;stroke-width:3.00"/>
	<rect x="1002.89" y="1771.05" width="64.99" height="65.00" style="fill:#A6C2DE"/>
	<rect x="1004.39" y="1772.55" width="61.99" height="62.00" style="fill:none;stroke:#2166AC;stroke-width:3.00"/>
	<rect x="1550.67" y="1771.05" width="64.99" height="65.00" style="fill:#E0A3AA"/>
	<rect x="1552.17" y="1772.55" width="61.99" height="62.00" style="fill:none;stroke:#B2182B;stroke-width:3.00"/>
	<text x="1106.90" y="1826.31" style="font-family:'Helvetica';font-size:64.99px;fill:#000000">Rounds 1-3</text>
	<text x="1654.68" y="1826.31" style="font-family:'Helvetica';font-size:64.99px;fill:#000000">Round 4</text>
	<text x="390.52" y="130.98" style="font-family:'Helvetica';font-size:93.63px;fill:#000000">Percentage of applicants who work in Explorations</text>
</svg>
