<?xml version="1.0" encoding="UTF-8" standalone="no"?>
<!-- This is a Stata 16.0 generated SVG file (http://www.stata.com) -->

<svg version="1.1" width="3.58in" height="2.60in" viewBox="0 0 2574 1872" xmlns="http://www.w3.org/2000/svg" xmlns:xlink="http://www.w3.org/1999/xlink">
	<desc>Stata Graph - Graph</desc>
	<rect x="0" y="0" width="2574" height="1872" style="fill:#FFFFFF;stroke:none"/>
	<rect x="0.00" y="0.00" width="2573.92" height="1872.00" style="fill:#FFFFFF"/>
	<rect x="1.50" y="1.50" width="2570.92" height="1869.00" style="fill:none;stroke:#FFFFFF;stroke-width:3.00"/>
	<rect x="396.24" y="381.37" width="2112.13" height="1327.58" style="fill:#FFFFFF"/>
	<rect x="397.74" y="382.87" width="2109.13" height="1324.58" style="fill:none;stroke:#FFFFFF;stroke-width:3.00"/>
	<rect x="659.83" y="1183.11" width="792.47" height="525.84" style="fill:#90B3D6"/>
	<rect x="661.33" y="1184.61" width="789.47" height="522.84" style="fill:none;stroke:#2166AC;stroke-width:3.00"/>
	<rect x="1452.30" y="1037.68" width="792.47" height="671.27" style="fill:#E0A3AA"/>
	<rect x="1453.80" y="1039.18" width="789.47" height="668.27" style="fill:none;stroke:#B2182B;stroke-width:3.00"/>
	<line x1="1056.06" y1="1672.11" x2="1056.06" y2="694.12" style="stroke:#808080;stroke-width:3.00"/>
	<line x1="1041.75" y1="694.12" x2="1070.38" y2="694.12" stroke-linecap="round" style="stroke:#808080;stroke-width:3.00"/>
	<line x1="1041.75" y1="1672.11" x2="1070.38" y2="1672.11" stroke-linecap="round" style="stroke:#808080;stroke-width:3.00"/>
	<line x1="1848.53" y1="1417.35" x2="1848.53" y2="657.92" style="stroke:#808080;stroke-width:3.00"/>
	<line x1="1834.22" y1="657.92" x2="1862.85" y2="657.92" stroke-linecap="round" style="stroke:#808080;stroke-width:3.00"/>
	<line x1="1834.22" y1="1417.35" x2="1862.85" y2="1417.35" stroke-linecap="round" style="stroke:#808080;stroke-width:3.00"/>
	<line x1="396.24" y1="1708.95" x2="396.24" y2="381.37" style="stroke:#000000;stroke-width:3.00"/>
	<text x="357.22" y="1731.72" style="font-family:'Helvetica';font-size:64.99px;fill:#000000" text-anchor="end">0%</text>
	<text x="357.22" y="1100.66" style="font-family:'Helvetica';font-size:64.99px;fill:#000000" text-anchor="end">20%</text>
	<text x="357.22" y="469.69" style="font-family:'Helvetica';font-size:64.99px;fill:#000000" text-anchor="end">40%</text>
	<text x="155.53" y="1045.16" style="font-family:'Helvetica';font-size:78.02px;fill:#000000" transform="rotate(-90 155.53,1045.16)" text-anchor="middle">Percentage</text>
	<line x1="396.24" y1="1708.95" x2="2508.36" y2="1708.95" style="stroke:#000000;stroke-width:3.00"/>
	<text x="461.71" y="1767.44" style="font-family:'Helvetica';font-size:64.99px;fill:#000000" text-anchor="middle"> </text>
	<text x="2442.89" y="1767.44" style="font-family:'Helvetica';font-size:64.99px;fill:#000000" text-anchor="middle"> </text>
	<rect x="959.62" y="1735.17" width="965.97" height="121.14" style="fill:#FFFFFF"/>
	<rect x="961.12" y="1736.67" width="962.97" height="118.14" style="fill:none;stroke:#FFFFFF;stroke-width:3.00"/>
	<rect x="987.69" y="1763.25" width="64.99" height="65.00" style="fill:#90B3D6"/>
	<rect x="989.19" y="1764.75" width="61.99" height="62.00" style="fill:none;stroke:#2166AC;stroke-width:3.00"/>
	<rect x="1535.55" y="1763.25" width="64.99" height="65.00" style="fill:#E0A3AA"/>
	<rect x="1537.05" y="1764.75" width="61.99" height="62.00" style="fill:none;stroke:#B2182B;stroke-width:3.00"/>
	<text x="1091.70" y="1818.51" style="font-family:'Helvetica';font-size:64.99px;fill:#000000">Rounds 1-3</text>
	<text x="1639.48" y="1818.51" style="font-family:'Helvetica';font-size:64.99px;fill:#000000">Round 4</text>
	<text x="396.24" y="130.98" style="font-family:'Helvetica';font-size:93.63px;fill:#000000">Percentage of projects with external collaborators</text>
</svg>
