<?xml version="1.0" encoding="UTF-8" standalone="no"?>
<!-- This is a Stata 16.0 generated SVG file (http://www.stata.com) -->

<svg version="1.1" width="3.58in" height="2.60in" viewBox="0 0 2574 1872" xmlns="http://www.w3.org/2000/svg" xmlns:xlink="http://www.w3.org/1999/xlink">
	<desc>Stata Graph - Graph</desc>
	<rect x="0" y="0" width="2574" height="1872" style="fill:#FFFFFF;stroke:none"/>
	<rect x="0.00" y="0.00" width="2573.92" height="1872.00" style="fill:#FFFFFF"/>
	<rect x="1.50" y="1.50" width="2570.92" height="1869.00" style="fill:none;stroke:#FFFFFF;stroke-width:3.00"/>
	<rect x="402.51" y="391.74" width="2105.85" height="1053.44" style="fill:#FFFFFF"/>
	<rect x="404.01" y="393.24" width="2102.85" height="1050.44" style="fill:none;stroke:#FFFFFF;stroke-width:3.00"/>
	<rect x="443.69" y="1336.59" width="289.09" height="67.41" style="fill:#8080FF;fill-opacity:0.40"/>
	<rect x="445.19" y="1338.09" width="286.09" height="64.41" style="fill:none;stroke:#0000FF;stroke-width:3.00"/>
	<rect x="732.79" y="1269.10" width="289.01" height="134.90" style="fill:#8080FF;fill-opacity:0.40"/>
	<rect x="734.29" y="1270.60" width="286.01" height="131.90" style="fill:none;stroke:#0000FF;stroke-width:3.00"/>
	<rect x="1021.80" y="931.98" width="289.09" height="472.02" style="fill:#8080FF;fill-opacity:0.40"/>
	<rect x="1023.30" y="933.48" width="286.09" height="469.02" style="fill:none;stroke:#0000FF;stroke-width:3.00"/>
	<rect x="1889.07" y="459.96" width="289.09" height="944.04" style="fill:#8080FF;fill-opacity:0.40"/>
	<rect x="1890.57" y="461.46" width="286.09" height="941.04" style="fill:none;stroke:#0000FF;stroke-width:3.00"/>
	<rect x="443.69" y="1059.64" width="289.09" height="344.36" style="fill:#FF8080;fill-opacity:0.40"/>
	<rect x="445.19" y="1061.14" width="286.09" height="341.36" style="fill:none;stroke:#FF0000;stroke-width:3.00"/>
	<rect x="732.79" y="1197.43" width="289.01" height="206.57" style="fill:#FF8080;fill-opacity:0.40"/>
	<rect x="734.29" y="1198.93" width="286.01" height="203.57" style="fill:none;stroke:#FF0000;stroke-width:3.00"/>
	<rect x="1310.89" y="887.49" width="289.09" height="516.51" style="fill:#FF8080;fill-opacity:0.40"/>
	<rect x="1312.39" y="888.99" width="286.09" height="513.51" style="fill:none;stroke:#FF0000;stroke-width:3.00"/>
	<rect x="1599.98" y="1128.49" width="289.09" height="275.51" style="fill:#FF8080;fill-opacity:0.40"/>
	<rect x="1601.48" y="1129.99" width="286.09" height="272.51" style="fill:none;stroke:#FF0000;stroke-width:3.00"/>
	<rect x="1889.07" y="1335.14" width="289.09" height="68.86" style="fill:#FF8080;fill-opacity:0.40"/>
	<rect x="1890.57" y="1336.64" width="286.09" height="65.86" style="fill:none;stroke:#FF0000;stroke-width:3.00"/>
	<rect x="2178.17" y="1197.43" width="289.09" height="206.57" style="fill:#FF8080;fill-opacity:0.40"/>
	<rect x="2179.67" y="1198.93" width="286.09" height="203.57" style="fill:none;stroke:#FF0000;stroke-width:3.00"/>
	<line x1="402.51" y1="1445.19" x2="402.51" y2="391.74" style="stroke:#000000;stroke-width:3.00"/>
	<text x="363.50" y="1426.77" style="font-family:'Helvetica';font-size:64.99px;fill:#000000" text-anchor="end">0%</text>
	<text x="363.50" y="1103.08" style="font-family:'Helvetica';font-size:64.99px;fill:#000000" text-anchor="end">20%</text>
	<text x="363.50" y="779.39" style="font-family:'Helvetica';font-size:64.99px;fill:#000000" text-anchor="end">40%</text>
	<text x="363.50" y="455.70" style="font-family:'Helvetica';font-size:64.99px;fill:#000000" text-anchor="end">60%</text>
	<text x="155.53" y="918.46" style="font-family:'Helvetica';font-size:78.02px;fill:#000000" transform="rotate(-90 155.53,918.46)" text-anchor="middle">Percentage</text>
	<line x1="402.51" y1="1445.19" x2="2508.36" y2="1445.19" style="stroke:#000000;stroke-width:3.00"/>
	<text x="604.34" y="1474.32" style="font-family:'Helvetica';font-size:64.99px;fill:#000000" transform="rotate(-45 604.34,1474.32)" text-anchor="end">Article or blog</text>
	<text x="893.35" y="1474.32" style="font-family:'Helvetica';font-size:64.99px;fill:#000000" transform="rotate(-45 893.35,1474.32)" text-anchor="end">Event</text>
	<text x="1182.44" y="1474.32" style="font-family:'Helvetica';font-size:64.99px;fill:#000000" transform="rotate(-45 1182.44,1474.32)" text-anchor="end">N/A</text>
	<text x="1471.54" y="1474.32" style="font-family:'Helvetica';font-size:64.99px;fill:#000000" transform="rotate(-45 1471.54,1474.32)" text-anchor="end">Other</text>
	<text x="1760.63" y="1474.32" style="font-family:'Helvetica';font-size:64.99px;fill:#000000" transform="rotate(-45 1760.63,1474.32)" text-anchor="end">Prototype</text>
	<text x="2049.72" y="1474.32" style="font-family:'Helvetica';font-size:64.99px;fill:#000000" transform="rotate(-45 2049.72,1474.32)" text-anchor="end">Report</text>
	<text x="2338.81" y="1474.32" style="font-family:'Helvetica';font-size:64.99px;fill:#000000" transform="rotate(-45 2338.81,1474.32)" text-anchor="end">Video</text>
	<rect x="918.84" y="1729.94" width="1088.16" height="134.17" style="fill:#FFFFFF"/>
	<rect x="920.34" y="1731.44" width="1085.16" height="131.17" style="fill:none;stroke:#FFFFFF;stroke-width:3.00"/>
	<rect x="946.91" y="1764.53" width="64.99" height="65.00" style="fill:#8080FF;fill-opacity:0.40"/>
	<rect x="948.41" y="1766.03" width="61.99" height="62.00" style="fill:none;stroke:#0000FF;stroke-width:3.00"/>
	<rect x="1565.31" y="1764.53" width="64.99" height="65.00" style="fill:#FF8080;fill-opacity:0.40"/>
	<rect x="1566.81" y="1766.03" width="61.99" height="62.00" style="fill:none;stroke:#FF0000;stroke-width:3.00"/>
	<text x="1050.92" y="1824.36" style="font-family:'Helvetica';font-size:78.02px;fill:#000000">Rounds 1-3</text>
	<text x="1669.32" y="1824.36" style="font-family:'Helvetica';font-size:78.02px;fill:#000000">Round 4</text>
	<text x="1208.49" y="129.20" style="font-family:'Helvetica';font-size:90.97px;fill:#000000">Output type</text>
</svg>
